PathFileType	4	(X/Y/Z)	OpenSim_Sub08_EMGBaseline_Magnet.trc
DataRate	CameraRate	NumFrames	NumMarkers	Units	OrigDataRate	OrigDataStartFrame	OrigNumFrames
100	100	33	8	m	100	4159	6654
Frame#	Time	torso_imu_offset_imu	pelvis_imu_offset_imu	tibia_r_imu_offset_imu	femur_r_imu_offset_imu	tibia_l_imu_offset_imu	femur_l_imu_offset_imu	toes_r_imu_offset_imu	toes_l_imu_offset_imu
				X1	Y1	Z1	X2	Y2	Z2	X3	Y3	Z3	X4	Y4	Z4	X5	Y5	Z5	X6	Y6	Z6	X7	Y7	Z7	X8		Y8	Z8	

4159	41.58000000	-0.94862881	-0.12652592	0.03991156	-0.66769785	0.21140271	-0.63758273	-0.48132687	-0.64458435	-0.10843406	-0.85314782	-0.13941450	-0.06068450	-0.61878597	0.43333540	0.33248471	-0.68675201	0.23991984	0.42099698	-0.55768238	-0.44763274	-0.31297560	-0.69792881	-0.27052225	-0.34920564
4160	41.59000000	-0.94677024	-0.12629712	0.03588249	-0.66558197	0.20755102	-0.63346564	-0.50999796	-0.62046606	-0.10406055	-0.85767244	-0.13571151	-0.05567764	-0.60867125	0.43867921	0.32923463	-0.68310960	0.23796871	0.41892985	-0.55822112	-0.42434396	-0.32915972	-0.69941705	-0.26686234	-0.34929947
4161	41.60000000	-0.94741918	-0.12014847	0.03669880	-0.66293680	0.20880161	-0.63361510	-0.53797956	-0.59557510	-0.11331521	-0.85788543	-0.13167227	-0.05708944	-0.60530968	0.44935182	0.33212531	-0.68212377	0.24286217	0.41208069	-0.55720903	-0.41018613	-0.34633959	-0.70086595	-0.26787042	-0.34900775
4162	41.61000000	-0.94468207	-0.12445960	0.04168126	-0.66359106	0.20648893	-0.63937252	-0.56968185	-0.56951691	-0.11824061	-0.85496754	-0.13050957	-0.06013562	-0.60024533	0.45781262	0.33257072	-0.68214156	0.24785275	0.41503484	-0.56030402	-0.39446077	-0.36430031	-0.70419429	-0.26770507	-0.34764215
4163	41.62000000	-0.93987751	-0.12921282	0.04486608	-0.66628040	0.20416385	-0.64413402	-0.59587771	-0.54297058	-0.11659042	-0.85508150	-0.12676737	-0.06106881	-0.59427692	0.46205866	0.33329334	-0.67822996	0.24961069	0.42424471	-0.55872049	-0.38020933	-0.38584089	-0.69952528	-0.26576469	-0.35463782
4164	41.63000000	-0.94496497	-0.12983841	0.04526008	-0.66218520	0.20195778	-0.65102615	-0.61815817	-0.51863035	-0.12560252	-0.85608245	-0.12969896	-0.06134068	-0.59472845	0.47015472	0.33375870	-0.67680510	0.25240154	0.42380957	-0.55853117	-0.36979359	-0.40850051	-0.70226267	-0.25758972	-0.35013201
4165	41.64000000	-0.94072433	-0.12656757	0.05159817	-0.66400240	0.19629192	-0.64839063	-0.64155421	-0.49190006	-0.11871070	-0.85305241	-0.13087799	-0.06071045	-0.58687512	0.47792734	0.33569445	-0.67699260	0.25859438	0.42109185	-0.55098536	-0.35181347	-0.44319807	-0.70759256	-0.25966552	-0.35068206
4166	41.65000000	-0.94385584	-0.12636532	0.05141280	-0.66811786	0.19578564	-0.64718262	-0.65645884	-0.46775760	-0.11365353	-0.85282702	-0.12619282	-0.06812790	-0.58201510	0.47965926	0.33616498	-0.67335377	0.26123273	0.42382236	-0.54364719	-0.33268445	-0.46708532	-0.70951333	-0.26197703	-0.35073715
4167	41.66000000	-0.94847429	-0.12408242	0.05470995	-0.66423468	0.19579336	-0.64641127	-0.67256383	-0.44467371	-0.10628926	-0.85556309	-0.12650159	-0.07135069	-0.57927744	0.48811888	0.32846201	-0.66890792	0.26164391	0.42186055	-0.53759798	-0.31424230	-0.48923357	-0.71201932	-0.25294051	-0.35156480
4168	41.67000000	-0.94516479	-0.12659675	0.05844152	-0.66520079	0.19583131	-0.63818246	-0.69257752	-0.41933654	-0.10622055	-0.85624153	-0.12760150	-0.07476887	-0.57252501	0.49979868	0.33073809	-0.66667968	0.26836370	0.43407440	-0.53001160	-0.29107552	-0.51218779	-0.71286028	-0.25219959	-0.35871858
4169	41.68000000	-0.94536944	-0.12913944	0.05619548	-0.66347942	0.19493973	-0.64015137	-0.70155428	-0.39260310	-0.10664946	-0.85184660	-0.12891133	-0.08182405	-0.56881961	0.50060606	0.33461939	-0.66382828	0.27325755	0.43807352	-0.52413409	-0.26773971	-0.52554834	-0.71093592	-0.25555753	-0.35592611
4170	41.69000000	-0.93878284	-0.12492404	0.06165852	-0.65994559	0.19269537	-0.65124297	-0.71934355	-0.36589317	-0.10110893	-0.85202503	-0.12746257	-0.07939550	-0.56506202	0.50747389	0.33065157	-0.65662258	0.27927277	0.42391944	-0.51775730	-0.24335780	-0.54904888	-0.71537039	-0.24718515	-0.35167095
4171	41.70000000	-0.94395097	-0.12276613	0.06492616	-0.66543751	0.19132242	-0.64819867	-0.73201399	-0.34500533	-0.10619093	-0.85234495	-0.12319811	-0.08533391	-0.56204927	0.51027204	0.32929547	-0.66014147	0.28392688	0.42735949	-0.51769798	-0.22156596	-0.56217369	-0.72093532	-0.24593826	-0.35621938
4172	41.71000000	-0.94591418	-0.12158514	0.06209698	-0.66417752	0.19171432	-0.64607624	-0.74459408	-0.31899294	-0.10698874	-0.84865049	-0.12752317	-0.09274088	-0.55463985	0.51516924	0.32972050	-0.65932575	0.29186829	0.42501924	-0.50930985	-0.19754070	-0.57410015	-0.72550306	-0.24488562	-0.35976894
4173	41.72000000	-0.94182498	-0.12250827	0.06383368	-0.66079039	0.19004339	-0.64423673	-0.75156843	-0.29871661	-0.10599306	-0.85326216	-0.12980872	-0.09396038	-0.55373710	0.52140115	0.33246881	-0.65512048	0.29925985	0.42927285	-0.50548761	-0.16946720	-0.58956177	-0.72576900	-0.24234593	-0.36122028
4174	41.73000000	-0.93925740	-0.12881164	0.06527989	-0.66187204	0.18583232	-0.64561959	-0.76168510	-0.27942813	-0.10638974	-0.84935690	-0.13031994	-0.10124967	-0.55094386	0.52232083	0.33240703	-0.65056345	0.30247594	0.43210686	-0.50402392	-0.14675624	-0.59885682	-0.73197059	-0.23654126	-0.35977476
4175	41.74000000	-0.94409370	-0.12731045	0.06652358	-0.65984286	0.18620065	-0.64614851	-0.77145775	-0.26274392	-0.10921132	-0.84541615	-0.13235226	-0.09813629	-0.54388902	0.53557761	0.33098383	-0.64602963	0.30480631	0.43119641	-0.49431859	-0.12671443	-0.60860530	-0.73590495	-0.23538753	-0.35911393
4176	41.75000000	-0.94379881	-0.12436990	0.07202515	-0.66195865	0.18632333	-0.65088639	-0.77320096	-0.24251592	-0.11266501	-0.84442705	-0.13079687	-0.10121338	-0.53982662	0.53839241	0.33206359	-0.63813306	0.31186630	0.43337534	-0.48471252	-0.10126979	-0.62188913	-0.74643921	-0.23141015	-0.35568019
4177	41.76000000	-0.93929687	-0.12464234	0.07289416	-0.66980893	0.18076124	-0.65484654	-0.78157206	-0.22246795	-0.10900317	-0.84575251	-0.13540047	-0.11150076	-0.53892939	0.53974953	0.33505849	-0.63551376	0.31798206	0.44239033	-0.48004518	-0.08184690	-0.62510466	-0.75272328	-0.22482306	-0.35348175
4178	41.77000000	-0.94290299	-0.12573736	0.06808285	-0.66788768	0.17970814	-0.65211421	-0.79024856	-0.20899000	-0.11291113	-0.84399238	-0.13873152	-0.11000625	-0.52936523	0.54844903	0.33817253	-0.63377131	0.32183045	0.44113572	-0.47617950	-0.07076691	-0.62947836	-0.75441257	-0.22336341	-0.35491435
4179	41.78000000	-0.94412593	-0.12641037	0.07376627	-0.65966450	0.18049873	-0.65105428	-0.78969676	-0.19784412	-0.11791677	-0.83677666	-0.13796495	-0.11421815	-0.52464140	0.55130056	0.33595964	-0.63028812	0.33100233	0.43192794	-0.46805521	-0.06718563	-0.63835172	-0.75695922	-0.22568190	-0.34746461
4180	41.79000000	-0.94306587	-0.12425786	0.07619909	-0.65812336	0.17926826	-0.64682248	-0.78939405	-0.18700588	-0.11315017	-0.84435033	-0.14625977	-0.11776214	-0.51858005	0.55290482	0.34006921	-0.62899185	0.33509992	0.43542341	-0.46164516	-0.06369739	-0.64157928	-0.76438043	-0.22375654	-0.34365484
4181	41.80000000	-0.94108929	-0.12570934	0.06718281	-0.65461568	0.18223954	-0.65514427	-0.79237677	-0.18307669	-0.11066163	-0.84126821	-0.15044242	-0.11894662	-0.51494725	0.55771740	0.34267415	-0.62902601	0.33857677	0.43929656	-0.45884562	-0.05736395	-0.64224289	-0.77595603	-0.21914598	-0.33857019
4182	41.81000000	-0.94321739	-0.12704754	0.06912255	-0.64952967	0.17767983	-0.66370636	-0.79373813	-0.18156646	-0.10723912	-0.83355665	-0.15595016	-0.11702203	-0.51314839	0.56673016	0.34139388	-0.62608037	0.34591907	0.43982223	-0.46088927	-0.04954745	-0.64307548	-0.78300866	-0.22105329	-0.33039472
4183	41.82000000	-0.94653450	-0.12734397	0.07231301	-0.65405587	0.17289652	-0.66281282	-0.79292252	-0.18424390	-0.10891619	-0.83353847	-0.15582722	-0.11133290	-0.50149147	0.57142703	0.34291303	-0.62523193	0.35153259	0.43554253	-0.46217159	-0.04627068	-0.64118570	-0.78536162	-0.22645379	-0.31711207
4184	41.83000000	-0.94428833	-0.12502899	0.07119770	-0.64797642	0.17449793	-0.66292602	-0.79480046	-0.19021307	-0.10924335	-0.83453401	-0.15963669	-0.10942943	-0.49340905	0.57846519	0.34028566	-0.62099523	0.35567816	0.43378562	-0.46685585	-0.05016350	-0.63607507	-0.79016471	-0.22424175	-0.30625807
4185	41.84000000	-0.94038423	-0.12393286	0.06781085	-0.65061061	0.17253584	-0.66603377	-0.79088022	-0.19997453	-0.10029597	-0.83944218	-0.16038383	-0.10615927	-0.48832655	0.58913966	0.33732902	-0.61997662	0.36044920	0.42992658	-0.47101807	-0.04968533	-0.63010613	-0.79358884	-0.22473260	-0.29922328
4186	41.85000000	-0.93936464	-0.12754476	0.07032860	-0.65368413	0.17289256	-0.66319836	-0.78355293	-0.20791328	-0.09248414	-0.83810140	-0.15883998	-0.09721415	-0.47907783	0.59828924	0.33865952	-0.62091315	0.36872652	0.42958440	-0.47983714	-0.05447414	-0.62652441	-0.79776944	-0.22961324	-0.28515832
4187	41.86000000	-0.93949039	-0.12670972	0.07204821	-0.64832975	0.17300594	-0.66383581	-0.78724548	-0.21468132	-0.08790721	-0.83940816	-0.16591618	-0.08872070	-0.47021182	0.60381879	0.33461747	-0.61884117	0.37431970	0.42825730	-0.48681632	-0.05856410	-0.62279576	-0.80625361	-0.22958393	-0.27702803
4188	41.87000000	-0.94554543	-0.12747499	0.06722251	-0.64928772	0.17205503	-0.66538882	-0.78126758	-0.23743632	-0.07963999	-0.84004320	-0.17061028	-0.07764671	-0.46239952	0.60963426	0.33279319	-0.61686488	0.37960054	0.42060825	-0.49667535	-0.05331008	-0.61430994	-0.80450723	-0.23336376	-0.26467166
4189	41.88000000	-0.94913836	-0.13098073	0.07040599	-0.64726575	0.17027665	-0.66847982	-0.77208127	-0.24765008	-0.07264935	-0.83706167	-0.17403870	-0.06739457	-0.45599455	0.61824825	0.32946473	-0.61957082	0.38889293	0.42075709	-0.51422946	-0.05698087	-0.59744648	-0.81087163	-0.23549084	-0.24212604
4190	41.89000000	-0.94012389	-0.13362091	0.06850044	-0.64472310	0.17123715	-0.66492545	-0.77453025	-0.24926505	-0.06791844	-0.83667038	-0.17314031	-0.05722301	-0.45020444	0.62593012	0.32688821	-0.61820082	0.39299264	0.41042396	-0.52729502	-0.06641304	-0.58508092	-0.81579040	-0.23553146	-0.22940254
4191	41.90000000	-0.94288518	-0.13344504	0.06298877	-0.64760005	0.16843316	-0.66785695	-0.77468808	-0.25218015	-0.06871556	-0.83427799	-0.18272673	-0.05079623	-0.44033325	0.64213487	0.31960758	-0.61745053	0.40078670	0.40970733	-0.54321990	-0.07047971	-0.56531261	-0.81329422	-0.24318509	-0.20773154
